<?xml version="1.0" standalone="no"?>
<!DOCTYPE svg PUBLIC "-//W3C//DTD SVG 20010904//EN"
 "http://www.w3.org/TR/2001/REC-SVG-20010904/DTD/svg10.dtd">
<svg version="1.0" xmlns="http://www.w3.org/2000/svg"
 width="300.000000pt" height="300.000000pt" viewBox="0 0 300.000000 300.000000"
 preserveAspectRatio="xMidYMid meet">
<metadata>
Created by potrace 1.11, written by Peter Selinger 2001-2013
</metadata>
<g transform="translate(0.000000,300.000000) scale(0.100000,-0.100000)"
fill="#000000" stroke="none">
<path d="M1344 2541 c-59 -27 -111 -77 -142 -135 -37 -70 -39 -189 -4 -256 56
-108 148 -164 267 -164 112 0 204 56 257 157 32 60 33 203 1 262 -29 54 -88
109 -143 134 -60 27 -178 28 -236 2z"/>
<path d="M2058 1877 c-123 -35 -208 -148 -208 -275 0 -80 24 -143 76 -201 126
-140 354 -122 455 37 72 114 64 248 -22 346 -76 86 -195 123 -301 93z"/>
<path d="M685 1197 c-133 -44 -214 -164 -203 -302 12 -147 120 -252 269 -263
95 -7 159 17 224 82 111 110 115 280 10 404 -61 72 -205 110 -300 79z"/>
<path d="M1359 1194 c-27 -8 -68 -33 -97 -59 -150 -135 -124 -367 55 -472 59
-34 159 -43 231 -19 115 39 195 152 195 276 0 200 -188 335 -384 274z"/>
<path d="M2058 1197 c-123 -35 -208 -147 -208 -276 0 -187 165 -327 343 -290
130 27 220 126 233 257 21 201 -173 364 -368 309z"/>
</g>
</svg>
